<svg width="18" height="20" viewBox="0 0 18 20" fill="none" xmlns="http://www.w3.org/2000/svg">
<path d="M9 20L0 15V5L9 0L18 5V15L9 20ZM6.1 7.25C6.48333 6.85 6.925 6.54167 7.425 6.325C7.925 6.10833 8.45 6 9 6C9.55 6 10.075 6.10833 10.575 6.325C11.075 6.54167 11.5167 6.85 11.9 7.25L14.9 5.575L9 2.3L3.1 5.575L6.1 7.25ZM8 17.15V13.875C7.1 13.6417 6.375 13.1667 5.825 12.45C5.275 11.7333 5 10.9167 5 10C5 9.81667 5.00833 9.64567 5.025 9.487C5.04167 9.32833 5.075 9.166 5.125 9L2 7.25V13.825L8 17.15ZM9 12C9.55 12 10.021 11.804 10.413 11.412C10.805 11.02 11.0007 10.5493 11 10C11 9.45 10.804 8.979 10.412 8.587C10.02 8.195 9.54933 7.99933 9 8C8.45 8 7.979 8.196 7.587 8.588C7.195 8.98 6.99933 9.45067 7 10C7 10.55 7.196 11.021 7.588 11.413C7.98 11.805 8.45067 12.0007 9 12ZM10 17.15L16 13.825V7.25L12.875 9C12.925 9.16667 12.9583 9.32933 12.975 9.488C12.9917 9.64667 13 9.81733 13 10C13 10.9167 12.725 11.7333 12.175 12.45C11.625 13.1667 10.9 13.6417 10 13.875V17.15Z" fill="white"/>
</svg>
