<svg width="24" height="24" viewBox="0 0 24 24" fill="none" xmlns="http://www.w3.org/2000/svg">
<path d="M17.9667 0.00952148H6.01427C2.70262 0.00952148 0 2.71214 0 6.0238V17.9952C0 21.2879 2.70262 23.9905 6.01427 23.9905H17.9857C21.2974 23.9905 24 21.2879 24 17.9762V6.0238C23.981 2.71214 21.2784 0.00952148 17.9667 0.00952148ZM7.99366 19.4227H4.5678V9.52578H7.99366V19.4227ZM6.2617 8.00318C5.29104 8.00318 4.51071 7.22284 4.51071 6.25219C4.51071 5.28153 5.29104 4.50119 6.2617 4.50119C7.23236 4.50119 8.01269 5.28153 8.01269 6.25219C7.99366 7.22284 7.21332 8.00318 6.2617 8.00318ZM19.4322 19.4227H19.4132H16.5583V14.6265C16.5583 13.4655 16.406 11.981 14.8263 11.981C13.2086 11.981 12.9421 13.2371 12.9421 14.5504V19.4227H10.0872V9.52578H12.7518V10.8581H12.8279C13.2466 10.0968 14.2173 9.50675 15.7399 9.50675C18.8803 9.50675 19.4322 11.3148 19.4322 13.9984V19.4227Z" fill="#F30050"/>
</svg>
