<svg width="32" height="32" viewBox="0 0 32 32" fill="none" xmlns="http://www.w3.org/2000/svg">
<path d="M11.6667 14.6667C12.3739 14.6667 13.0522 14.3857 13.5523 13.8856C14.0524 13.3855 14.3333 12.7072 14.3333 12C14.3333 11.2928 14.0524 10.6145 13.5523 10.1144C13.0522 9.61429 12.3739 9.33333 11.6667 9.33333C10.9594 9.33333 10.2811 9.61429 9.78105 10.1144C9.28095 10.6145 9 11.2928 9 12C9 12.7072 9.28095 13.3855 9.78105 13.8856C10.2811 14.3857 10.9594 14.6667 11.6667 14.6667ZM15.6667 0L28.3333 7.33333V22L15.6667 29.3333L3 22V7.33333L15.6667 0ZM5.66667 8.87067V20.4627L8.82933 22.2933L19.5933 14.4L25.6667 18.0453V8.872L15.6667 3.08L5.66667 8.87067Z" fill="white"/>
</svg>
