<svg width="20" height="20" viewBox="0 0 20 20" fill="none" xmlns="http://www.w3.org/2000/svg">
<path d="M16.268 19.001H9.732C9.57828 19.2662 9.36565 19.4926 9.11053 19.6625C8.8554 19.8325 8.56463 19.9416 8.26065 19.9813C7.95668 20.021 7.64765 19.9903 7.35743 19.8915C7.06721 19.7928 6.80357 19.6287 6.58688 19.4118C6.3702 19.195 6.20626 18.9312 6.10773 18.6409C6.0092 18.3506 5.97873 18.0416 6.01865 17.7376C6.05858 17.4337 6.16784 17.143 6.338 16.888C6.50816 16.633 6.73466 16.4205 7 16.267V13L3.73 13.001C3.56714 13.2829 3.3379 13.5209 3.0622 13.6941C2.78651 13.8673 2.47268 13.9706 2.148 13.995L2 14C1.55975 14 1.1318 13.8547 0.782531 13.5867C0.433261 13.3187 0.182183 12.9429 0.0682364 12.5176C-0.0457107 12.0924 -0.0161597 11.6414 0.152307 11.2347C0.320773 10.8279 0.61874 10.4881 0.999998 10.268V3.732C0.734302 3.57862 0.507452 3.36618 0.336997 3.11111C0.166542 2.85603 0.0570519 2.56516 0.0169976 2.261C-0.0230567 1.95684 0.00739822 1.64754 0.106007 1.35703C0.204615 1.06653 0.368733 0.802598 0.585665 0.585666C0.802596 0.368735 1.06652 0.204617 1.35703 0.106009C1.64754 0.00740013 1.95684 -0.0230548 2.261 0.0169995C2.56516 0.0570538 2.85603 0.166544 3.11111 0.336999C3.36618 0.507454 3.57862 0.734304 3.732 1H10.268C10.4214 0.734304 10.6338 0.507454 10.8889 0.336999C11.144 0.166544 11.4348 0.0570538 11.739 0.0169995C12.0432 -0.0230548 12.3525 0.00740013 12.643 0.106009C12.9335 0.204617 13.1974 0.368735 13.4143 0.585666C13.6313 0.802598 13.7954 1.06653 13.894 1.35703C13.9926 1.64754 14.0231 1.95684 13.983 2.261C13.9429 2.56516 13.8335 2.85603 13.663 3.11111C13.4925 3.36618 13.2657 3.57862 13 3.732V7H16.268C16.4308 6.71774 16.6602 6.47954 16.9361 6.30613C17.212 6.13271 17.526 6.02934 17.851 6.005L18 6C18.4401 5.99996 18.8679 6.14509 19.2172 6.41289C19.5664 6.68069 19.8176 7.05622 19.9317 7.48126C20.0459 7.9063 20.0166 8.35713 19.8486 8.76387C19.6805 9.17061 19.3829 9.51055 19.002 9.731V16.269C19.2674 16.4226 19.4939 16.6353 19.664 16.8904C19.8342 17.1456 19.9433 17.4364 19.9831 17.7405C20.0229 18.0446 19.9922 18.3538 19.8934 18.6441C19.7946 18.9344 19.6304 19.1981 19.4134 19.4149C19.1965 19.6316 18.9325 19.7955 18.6421 19.894C18.3517 19.9925 18.0425 20.0228 17.7385 19.9827C17.4344 19.9426 17.1437 19.8331 16.8887 19.6627C16.6337 19.4923 16.4214 19.2666 16.268 19.001ZM16.268 9.001L13 9L13.001 10.268C13.2831 10.431 13.5211 10.6603 13.6943 10.9362C13.8675 11.2121 13.9708 11.5261 13.995 11.851L14 12C14.0002 12.4403 13.8551 12.8684 13.5871 13.2179C13.3192 13.5673 12.9434 13.8186 12.5181 13.9326C12.0928 14.0467 11.6418 14.0172 11.2349 13.8488C10.8281 13.6803 10.4882 13.3823 10.268 13.001L9.001 13L9.002 16.269C9.305 16.444 9.557 16.697 9.732 16.999H16.268C16.4442 16.6951 16.6969 16.4428 17.001 16.267V9.733C16.748 9.58674 16.53 9.38711 16.362 9.148L16.268 9.001ZM11 9L9.732 9.001C9.55637 9.30374 9.30474 9.55537 9.002 9.731L9.001 11H10.268C10.4439 10.6963 10.6963 10.4439 11 10.268V9ZM10.268 3.001H3.732C3.55637 3.30374 3.30474 3.55537 3.002 3.731V10.268C3.304 10.444 3.557 10.697 3.732 11H7.001V9.733C6.71842 9.57019 6.47994 9.34074 6.30634 9.06466C6.13274 8.78857 6.02929 8.47422 6.005 8.149L6 8C6.00002 7.55975 6.1453 7.1318 6.41332 6.78253C6.68133 6.43326 7.0571 6.18219 7.48235 6.06824C7.9076 5.95429 8.35857 5.98384 8.76532 6.15231C9.17206 6.32078 9.51185 6.61874 9.732 7H11V3.732C10.7475 3.58594 10.5298 3.38666 10.362 3.148L10.268 3.001Z" fill="white"/>
</svg>
